<svg width="20" height="20" viewBox="0 0 20 20" fill="none" xmlns="http://www.w3.org/2000/svg">
<path d="M9.10002 13.9004C9.10002 14.3974 9.50297 14.8004 10 14.8004C10.4971 14.8004 10.9 14.3974 10.9 13.9004L10.9 3.56409L14.4457 7.31835C14.787 7.67972 15.3566 7.69599 15.718 7.3547C16.0794 7.01341 16.0956 6.4438 15.7543 6.08243L10.6543 0.682429C10.4843 0.502408 10.2476 0.400391 10 0.400391C9.75241 0.400391 9.51573 0.502408 9.34571 0.682429L4.24571 6.08243C3.90442 6.44379 3.92069 7.01341 4.28206 7.3547C4.64343 7.69599 5.21304 7.67972 5.55433 7.31835L9.10002 3.56409L9.10002 13.9004Z" fill="#02981D"/>
<path d="M2.20002 13.3004C2.20002 12.8033 1.79708 12.4004 1.30002 12.4004C0.802968 12.4004 0.400024 12.8033 0.400024 13.3004V16.3004C0.400024 18.1229 1.87749 19.6004 3.70002 19.6004H16.3C18.1226 19.6004 19.6 18.1229 19.6 16.3004V13.3004C19.6 12.8033 19.1971 12.4004 18.7 12.4004C18.203 12.4004 17.8 12.8033 17.8 13.3004V16.3004C17.8 17.1288 17.1285 17.8004 16.3 17.8004H3.70002C2.8716 17.8004 2.20002 17.1288 2.20002 16.3004V13.3004Z" fill="#02981D"/>
</svg>
