<svg width="21" height="20" viewBox="0 0 21 20" fill="none" xmlns="http://www.w3.org/2000/svg">
<path d="M9.5999 13.9004C9.5999 14.3974 10.0028 14.8004 10.4999 14.8004C10.997 14.8004 11.3999 14.3974 11.3999 13.9004L11.3999 3.56409L14.9456 7.31835C15.2869 7.67972 15.8565 7.69599 16.2179 7.3547C16.5792 7.01341 16.5955 6.4438 16.2542 6.08243L11.1542 0.682429C10.9842 0.502408 10.7475 0.400391 10.4999 0.400391C10.2523 0.400391 10.0156 0.502408 9.84559 0.682429L4.74559 6.08243C4.4043 6.44379 4.42057 7.01341 4.78194 7.3547C5.14331 7.69599 5.71292 7.67972 6.05421 7.31835L9.5999 3.56409L9.5999 13.9004Z" fill="white"/>
<path d="M2.6999 13.3004C2.6999 12.8033 2.29696 12.4004 1.7999 12.4004C1.30285 12.4004 0.899902 12.8033 0.899902 13.3004V16.3004C0.899902 18.1229 2.37736 19.6004 4.1999 19.6004H16.7999C18.6224 19.6004 20.0999 18.1229 20.0999 16.3004V13.3004C20.0999 12.8033 19.697 12.4004 19.1999 12.4004C18.7028 12.4004 18.2999 12.8033 18.2999 13.3004V16.3004C18.2999 17.1288 17.6283 17.8004 16.7999 17.8004H4.1999C3.37148 17.8004 2.6999 17.1288 2.6999 16.3004V13.3004Z" fill="white"/>
</svg>
