<svg width="18" height="21" viewBox="0 0 18 21" fill="none" xmlns="http://www.w3.org/2000/svg">
<path d="M17.25 4.875C17.25 7.15317 13.5563 9 9 9C4.44365 9 0.75 7.15317 0.75 4.875M17.25 4.875C17.25 2.59683 13.5563 0.75 9 0.75C4.44365 0.75 0.75 2.59683 0.75 4.875M17.25 4.875V16.125C17.25 18.4032 13.5563 20.25 9 20.25C4.44365 20.25 0.75 18.4032 0.75 16.125V4.875M17.25 4.875V8.625M0.75 4.875V8.625M17.25 8.625V12.375C17.25 14.6532 13.5563 16.5 9 16.5C4.44365 16.5 0.75 14.6532 0.75 12.375V8.625M17.25 8.625C17.25 10.9032 13.5563 12.75 9 12.75C4.44365 12.75 0.75 10.9032 0.75 8.625" stroke="#ACACAC" stroke-width="1.5" stroke-linecap="round" stroke-linejoin="round"/>
</svg>
