<svg width="22" height="19" viewBox="0 0 22 19" fill="none" xmlns="http://www.w3.org/2000/svg">
<path d="M1.25 15.25C6.71719 15.25 12.0136 15.9812 17.0468 17.3512C17.7738 17.5491 18.5 17.0086 18.5 16.2551V15.25M2.75 1V1.75C2.75 2.16421 2.41421 2.5 2 2.5H1.25M1.25 2.5V2.125C1.25 1.50368 1.75368 1 2.375 1H19.25M1.25 2.5V11.5M19.25 1V1.75C19.25 2.16421 19.5858 2.5 20 2.5H20.75M19.25 1H19.625C20.2463 1 20.75 1.50368 20.75 2.125V11.875C20.75 12.4963 20.2463 13 19.625 13H19.25M20.75 11.5H20C19.5858 11.5 19.25 11.8358 19.25 12.25V13M19.25 13H2.75M2.75 13H2.375C1.75368 13 1.25 12.4963 1.25 11.875V11.5M2.75 13V12.25C2.75 11.8358 2.41421 11.5 2 11.5H1.25M14 7C14 8.65685 12.6569 10 11 10C9.34315 10 8 8.65685 8 7C8 5.34315 9.34315 4 11 4C12.6569 4 14 5.34315 14 7ZM17 7H17.0075V7.0075H17V7ZM5 7H5.0075V7.0075H5V7Z" stroke="#ACACAC" stroke-width="1.5" stroke-linecap="round" stroke-linejoin="round"/>
</svg>
