<svg width="22" height="21" viewBox="0 0 22 21" fill="none" xmlns="http://www.w3.org/2000/svg">
<path d="M1.25 5.25C1.25 13.5343 7.96573 20.25 16.25 20.25H18.5C19.7426 20.25 20.75 19.2426 20.75 18V16.6284C20.75 16.1121 20.3987 15.6622 19.8979 15.537L15.4747 14.4312C15.0355 14.3214 14.5734 14.4855 14.3018 14.8476L13.3316 16.1412C13.05 16.5166 12.563 16.6827 12.1223 16.5212C8.81539 15.3098 6.19015 12.6846 4.97876 9.37766C4.81734 8.93699 4.98336 8.44998 5.3588 8.1684L6.65242 7.19818C7.01453 6.9266 7.17861 6.46445 7.06883 6.02533L5.96304 1.60215C5.83783 1.10133 5.38785 0.75 4.87163 0.75H3.5C2.25736 0.75 1.25 1.75736 1.25 3V5.25Z" stroke="#ACACAC" stroke-width="1.5" stroke-linecap="round" stroke-linejoin="round"/>
</svg>
