<svg width="22" height="17" viewBox="0 0 22 17" fill="none" xmlns="http://www.w3.org/2000/svg">
<path d="M20.75 3.25V13.75C20.75 14.9926 19.7426 16 18.5 16H3.5C2.25736 16 1.25 14.9926 1.25 13.75V3.25M20.75 3.25C20.75 2.00736 19.7426 1 18.5 1H3.5C2.25736 1 1.25 2.00736 1.25 3.25M20.75 3.25V3.49271C20.75 4.27405 20.3447 4.99945 19.6792 5.40894L12.1792 10.0243C11.4561 10.4694 10.5439 10.4694 9.82078 10.0243L2.32078 5.40894C1.65535 4.99945 1.25 4.27405 1.25 3.49271V3.25" stroke="#ACACAC" stroke-width="1.5" stroke-linecap="round" stroke-linejoin="round"/>
</svg>
