<svg width="22" height="18" viewBox="0 0 22 18" fill="none" xmlns="http://www.w3.org/2000/svg">
<path d="M14 6H17.75M14 9H17.75M14 12H17.75M3.5 16.5H18.5C19.7426 16.5 20.75 15.4926 20.75 14.25V3.75C20.75 2.50736 19.7426 1.5 18.5 1.5H3.5C2.25736 1.5 1.25 2.50736 1.25 3.75V14.25C1.25 15.4926 2.25736 16.5 3.5 16.5ZM9.5 6.375C9.5 7.41053 8.66053 8.25 7.625 8.25C6.58947 8.25 5.75 7.41053 5.75 6.375C5.75 5.33947 6.58947 4.5 7.625 4.5C8.66053 4.5 9.5 5.33947 9.5 6.375ZM10.7939 12.7114C9.84894 13.2147 8.77021 13.5 7.62484 13.5C6.47948 13.5 5.40074 13.2147 4.45581 12.7114C4.92986 11.4207 6.16983 10.5 7.62484 10.5C9.07986 10.5 10.3198 11.4207 10.7939 12.7114Z" stroke="#ACACAC" stroke-width="1.5" stroke-linecap="round" stroke-linejoin="round"/>
</svg>
