<svg width="16" height="14" viewBox="0 0 16 14" fill="none" xmlns="http://www.w3.org/2000/svg">
<path d="M12 11.4794C12.165 11.4931 12.3319 11.5 12.5004 11.5C13.1993 11.5 13.8703 11.3805 14.494 11.1608C14.4982 11.1078 14.5004 11.0541 14.5004 11C14.5004 9.89543 13.605 9 12.5004 9C12.082 9 11.6936 9.12849 11.3725 9.34815M12 11.4794C12 11.4863 12 11.4931 12 11.5C12 11.65 11.9917 11.7981 11.9757 11.9438C10.8045 12.6158 9.44711 13 8 13C6.55289 13 5.19551 12.6158 4.02434 11.9438C4.00826 11.7981 4 11.65 4 11.5C4 11.4932 4.00002 11.4863 4.00005 11.4795M12 11.4794C11.996 10.6951 11.7663 9.96408 11.3725 9.34815M11.3725 9.34815C10.6619 8.23679 9.41698 7.5 8 7.5C6.5832 7.5 5.33844 8.23661 4.62779 9.34774M4.62779 9.34774C4.30682 9.12833 3.91864 9 3.50049 9C2.39592 9 1.50049 9.89543 1.50049 11C1.50049 11.0541 1.50264 11.1078 1.50686 11.1608C2.13062 11.3805 2.8016 11.5 3.50049 11.5C3.66872 11.5 3.83533 11.4931 4.00005 11.4795M4.62779 9.34774C4.2338 9.96377 4.00399 10.6949 4.00005 11.4795M10 3.5C10 4.60457 9.10457 5.5 8 5.5C6.89543 5.5 6 4.60457 6 3.5C6 2.39543 6.89543 1.5 8 1.5C9.10457 1.5 10 2.39543 10 3.5ZM14 5.5C14 6.32843 13.3284 7 12.5 7C11.6716 7 11 6.32843 11 5.5C11 4.67157 11.6716 4 12.5 4C13.3284 4 14 4.67157 14 5.5ZM5 5.5C5 6.32843 4.32843 7 3.5 7C2.67157 7 2 6.32843 2 5.5C2 4.67157 2.67157 4 3.5 4C4.32843 4 5 4.67157 5 5.5Z" stroke="#ACACAC" stroke-width="1.5" stroke-linecap="round" stroke-linejoin="round"/>
</svg>
