<svg width="20" height="19" viewBox="0 0 20 19" fill="none" xmlns="http://www.w3.org/2000/svg">
<path d="M19 9.5C19 8.25736 17.9926 7.25 16.75 7.25H13C13 8.90685 11.6569 10.25 10 10.25C8.34315 10.25 7 8.90685 7 7.25H3.25C2.00736 7.25 1 8.25736 1 9.5M19 9.5V15.5C19 16.7426 17.9926 17.75 16.75 17.75H3.25C2.00736 17.75 1 16.7426 1 15.5V9.5M19 9.5V6.5M1 9.5V6.5M19 6.5C19 5.25736 17.9926 4.25 16.75 4.25H3.25C2.00736 4.25 1 5.25736 1 6.5M19 6.5V3.5C19 2.25736 17.9926 1.25 16.75 1.25H3.25C2.00736 1.25 1 2.25736 1 3.5V6.5" stroke="#ACACAC" stroke-width="1.5" stroke-linecap="round" stroke-linejoin="round"/>
</svg>
