<svg width="44" height="44" viewBox="0 0 44 44" fill="none" xmlns="http://www.w3.org/2000/svg">
<rect width="44" height="44" rx="22" fill="white"/>
<path d="M12.25 28.75C17.7172 28.75 23.0136 29.4812 28.0468 30.8512C28.7738 31.0491 29.5 30.5086 29.5 29.7551V28.75M13.75 14.5V15.25C13.75 15.6642 13.4142 16 13 16H12.25M12.25 16V15.625C12.25 15.0037 12.7537 14.5 13.375 14.5H30.25M12.25 16V25M30.25 14.5V15.25C30.25 15.6642 30.5858 16 31 16H31.75M30.25 14.5H30.625C31.2463 14.5 31.75 15.0037 31.75 15.625V25.375C31.75 25.9963 31.2463 26.5 30.625 26.5H30.25M31.75 25H31C30.5858 25 30.25 25.3358 30.25 25.75V26.5M30.25 26.5H13.75M13.75 26.5H13.375C12.7537 26.5 12.25 25.9963 12.25 25.375V25M13.75 26.5V25.75C13.75 25.3358 13.4142 25 13 25H12.25M25 20.5C25 22.1569 23.6569 23.5 22 23.5C20.3431 23.5 19 22.1569 19 20.5C19 18.8431 20.3431 17.5 22 17.5C23.6569 17.5 25 18.8431 25 20.5ZM28 20.5H28.0075V20.5075H28V20.5ZM16 20.5H16.0075V20.5075H16V20.5Z" stroke="#02981D" stroke-width="1.5" stroke-linecap="round" stroke-linejoin="round"/>
</svg>
