<svg width="44" height="44" viewBox="0 0 44 44" fill="none" xmlns="http://www.w3.org/2000/svg">
<rect width="44" height="44" rx="22" fill="white"/>
<path d="M16.2037 30.5C15.8397 30.5 15.493 30.3763 15.1635 30.1288C14.834 29.8814 14.6173 29.5788 14.5135 29.221C14.0968 27.7827 13.76 26.5638 13.503 25.5645C13.2458 24.565 13.0429 23.7034 12.8942 22.9798C12.7456 22.2561 12.6427 21.6247 12.5855 21.0855C12.5285 20.5465 12.5 20.018 12.5 19.5C12.5 18.1077 12.9852 16.9262 13.9557 15.9557C14.9262 14.9852 16.1077 14.5 17.5 14.5H22.75C23.2 13.9 23.75 13.4167 24.4 13.05C25.05 12.6833 25.75 12.5 26.5 12.5C26.7757 12.5 27.0113 12.5977 27.2068 12.7932C27.4023 12.9887 27.5 13.2243 27.5 13.5C27.5 13.568 27.4907 13.6343 27.472 13.699C27.4535 13.7638 27.434 13.8283 27.4135 13.8923C27.3403 14.0884 27.2698 14.3006 27.202 14.5288C27.134 14.7571 27.0705 15.0468 27.0115 15.398L29.6135 18H30.596C30.8538 18 31.0689 18.0862 31.2413 18.2587C31.4138 18.4311 31.5 18.6462 31.5 18.904V23.452C31.5 23.6493 31.4439 23.8249 31.3318 23.9788C31.2196 24.1326 31.0648 24.2448 30.8673 24.3152L28.771 25.0058L27.5115 29.2095C27.391 29.6045 27.1718 29.9183 26.8538 30.151C26.5359 30.3837 26.1744 30.5 25.7693 30.5H24.3077C23.8091 30.5 23.3831 30.3234 23.0297 29.9703C22.6766 29.6169 22.5 29.1909 22.5 28.6923V28.5H19.5V28.6923C19.5 29.1909 19.3234 29.6169 18.9703 29.9703C18.6169 30.3234 18.1909 30.5 17.6923 30.5H16.2037ZM16.25 29H17.6923C17.7821 29 17.8558 28.9712 17.9135 28.9135C17.9712 28.8558 18 28.7821 18 28.6923V27H24V28.6923C24 28.7821 24.0288 28.8558 24.0865 28.9135C24.1442 28.9712 24.2179 29 24.3077 29H25.7693C25.8398 29 25.9023 28.9808 25.9568 28.9423C26.0113 28.9037 26.0481 28.8493 26.0673 28.7788L27.55 23.85L30 23.025V19.5H29L25.5 16C25.5 15.6858 25.5224 15.364 25.5673 15.0345C25.6121 14.7052 25.6794 14.3968 25.7693 14.1095C25.3051 14.2365 24.8849 14.4705 24.5087 14.8115C24.1324 15.1525 23.8545 15.5487 23.675 16H17.5C16.5333 16 15.7083 16.3417 15.025 17.025C14.3417 17.7083 14 18.5333 14 19.5C14 20.1705 14.1686 21.3125 14.5057 22.926C14.8429 24.5395 15.3186 26.484 15.9327 28.7595C15.9519 28.83 15.992 28.8878 16.053 28.9328C16.1138 28.9776 16.1795 29 16.25 29ZM26 20.8845C26.2448 20.8845 26.4535 20.7983 26.626 20.626C26.7983 20.4535 26.8845 20.2448 26.8845 20C26.8845 19.7552 26.7983 19.5465 26.626 19.374C26.4535 19.2017 26.2448 19.1155 26 19.1155C25.7552 19.1155 25.5465 19.2017 25.374 19.374C25.2017 19.5465 25.1155 19.7552 25.1155 20C25.1155 20.2448 25.2017 20.4535 25.374 20.626C25.5465 20.7983 25.7552 20.8845 26 20.8845ZM22.25 18.75C22.4628 18.75 22.641 18.6782 22.7845 18.5345C22.9282 18.391 23 18.2128 23 18C23 17.7872 22.9282 17.609 22.7845 17.4655C22.641 17.3218 22.4628 17.25 22.25 17.25H18.75C18.5372 17.25 18.359 17.3218 18.2155 17.4655C18.0718 17.609 18 17.7872 18 18C18 18.2128 18.0718 18.391 18.2155 18.5345C18.359 18.6782 18.5372 18.75 18.75 18.75H22.25Z" fill="#3F3767"/>
</svg>
