<svg width="44" height="44" viewBox="0 0 44 44" fill="none" xmlns="http://www.w3.org/2000/svg">
<rect width="44" height="44" rx="22" fill="white"/>
<path d="M27.9999 28.7191C28.2474 28.7396 28.4978 28.75 28.7506 28.75C29.7989 28.75 30.8054 28.5708 31.741 28.2413C31.7473 28.1617 31.7506 28.0812 31.7506 28C31.7506 26.3431 30.4074 25 28.7506 25C28.123 25 27.5403 25.1927 27.0587 25.5222M27.9999 28.7191C28 28.7294 28 28.7397 28 28.75C28 28.975 27.9876 29.1971 27.9635 29.4156C26.2067 30.4237 24.1707 31 22 31C19.8293 31 17.7933 30.4237 16.0365 29.4156C16.0124 29.1971 16 28.975 16 28.75C16 28.7397 16 28.7295 16.0001 28.7192M27.9999 28.7191C27.994 27.5426 27.6494 26.4461 27.0587 25.5222M27.0587 25.5222C25.9928 23.8552 24.1255 22.75 22 22.75C19.8748 22.75 18.0077 23.8549 16.9417 25.5216M16.9417 25.5216C16.4602 25.1925 15.878 25 15.2507 25C13.5939 25 12.2507 26.3431 12.2507 28C12.2507 28.0812 12.254 28.1617 12.2603 28.2413C13.1959 28.5708 14.2024 28.75 15.2507 28.75C15.5031 28.75 15.753 28.7396 16.0001 28.7192M16.9417 25.5216C16.3507 26.4457 16.006 27.5424 16.0001 28.7192M25 16.75C25 18.4069 23.6569 19.75 22 19.75C20.3431 19.75 19 18.4069 19 16.75C19 15.0931 20.3431 13.75 22 13.75C23.6569 13.75 25 15.0931 25 16.75ZM31 19.75C31 20.9926 29.9926 22 28.75 22C27.5074 22 26.5 20.9926 26.5 19.75C26.5 18.5074 27.5074 17.5 28.75 17.5C29.9926 17.5 31 18.5074 31 19.75ZM17.5 19.75C17.5 20.9926 16.4926 22 15.25 22C14.0074 22 13 20.9926 13 19.75C13 18.5074 14.0074 17.5 15.25 17.5C16.4926 17.5 17.5 18.5074 17.5 19.75Z" stroke="#9E7323" stroke-width="1.5" stroke-linecap="round" stroke-linejoin="round"/>
</svg>
