<svg width="32" height="32" viewBox="0 0 32 32" fill="none" xmlns="http://www.w3.org/2000/svg">
<rect width="32" height="32" rx="8" fill="#1E1E1E" fill-opacity="0.05"/>
<path d="M15.9998 17.4L11.0998 22.3C10.9165 22.4833 10.6831 22.575 10.3998 22.575C10.1165 22.575 9.88314 22.4833 9.6998 22.3C9.51647 22.1167 9.4248 21.8833 9.4248 21.6C9.4248 21.3167 9.51647 21.0833 9.6998 20.9L14.5998 16L9.6998 11.1C9.51647 10.9167 9.4248 10.6833 9.4248 10.4C9.4248 10.1167 9.51647 9.88334 9.6998 9.7C9.88314 9.51667 10.1165 9.425 10.3998 9.425C10.6831 9.425 10.9165 9.51667 11.0998 9.7L15.9998 14.6L20.8998 9.7C21.0831 9.51667 21.3165 9.425 21.5998 9.425C21.8831 9.425 22.1165 9.51667 22.2998 9.7C22.4831 9.88334 22.5748 10.1167 22.5748 10.4C22.5748 10.6833 22.4831 10.9167 22.2998 11.1L17.3998 16L22.2998 20.9C22.4831 21.0833 22.5748 21.3167 22.5748 21.6C22.5748 21.8833 22.4831 22.1167 22.2998 22.3C22.1165 22.4833 21.8831 22.575 21.5998 22.575C21.3165 22.575 21.0831 22.4833 20.8998 22.3L15.9998 17.4Z" fill="#828282"/>
</svg>
