<svg width="139" height="35" viewBox="0 0 139 35" fill="none" xmlns="http://www.w3.org/2000/svg">
<g clip-path="url(#clip0_722_10414)">
<path d="M139 11.8496H87.4799V22.7182H139V11.8496Z" fill="url(#paint0_linear_722_10414)"/>
<path d="M53.8209 13.4022L51.3169 21.0244H49.4438L47.7528 15.8568L46.0237 21.0244H44.1407L41.6353 13.4022H43.466L45.1839 18.7603L46.9821 13.4022H48.6152L50.357 18.7998L52.1327 13.4022H53.8209Z" fill="#231F20"/>
<path d="M58.661 13.4022H56.8867L53.437 21.1655H55.2339L55.9382 19.4717H59.5983L60.3026 21.1655H62.1446L58.661 13.4022ZM56.5635 18.0602L57.7689 15.1624L58.973 18.0602H56.5621H56.5635Z" fill="#231F20"/>
<path d="M67.8598 17.2134H69.4125V20.2961C69.0074 20.6151 68.543 20.8537 68.0179 21.0174C67.4929 21.1811 66.9678 21.2616 66.4441 21.2616C65.864 21.2616 65.329 21.1656 64.8392 20.9736C64.3494 20.7817 63.9274 20.5092 63.5703 20.155C63.2132 19.8007 62.9351 19.3829 62.7361 18.9058C62.537 18.4287 62.4382 17.9036 62.4382 17.3319C62.4382 16.7603 62.537 16.2352 62.7361 15.7567C62.9351 15.2796 63.2174 14.8632 63.5801 14.5089C63.9429 14.1546 64.3692 13.8808 64.859 13.6888C65.3488 13.4969 65.888 13.4009 66.4752 13.4009C67.1245 13.4009 67.7116 13.5138 68.2311 13.7382C68.7519 13.9627 69.1909 14.2887 69.5466 14.715L68.4668 15.7567C68.1944 15.4603 67.9008 15.2415 67.5846 15.1003C67.2698 14.9578 66.924 14.8886 66.5471 14.8886C66.1971 14.8886 65.8767 14.9479 65.5831 15.0665C65.2895 15.1864 65.0354 15.3544 64.8223 15.5718C64.6091 15.7892 64.4454 16.0461 64.3297 16.3425C64.2139 16.6403 64.156 16.9692 64.156 17.3305C64.156 17.6919 64.2139 18.0024 64.3297 18.3016C64.4454 18.6023 64.6091 18.8592 64.8223 19.0766C65.0354 19.2939 65.2867 19.4647 65.5774 19.5861C65.8668 19.7103 66.1872 19.7724 66.5373 19.7724C66.8873 19.7724 67.2007 19.7146 67.5183 19.5974C67.6326 19.5565 67.7469 19.5043 67.8584 19.4436V17.2105L67.8598 17.2134Z" fill="#231F20"/>
<path d="M70.5417 17.7779V16.6487H76.0466V17.7779H70.5417ZM70.5417 21.0244V19.6129H77.1759V21.0244H70.5417ZM71.5298 20.8833V16.454C71.5298 15.8032 71.6738 15.2457 71.9631 14.7827C72.2525 14.3197 72.6703 13.9626 73.218 13.7128C73.7656 13.463 74.4262 13.3387 75.1997 13.3387C75.65 13.3387 76.065 13.3811 76.4433 13.4644C76.8216 13.5476 77.1575 13.6761 77.4511 13.8497L76.8992 15.2288C76.6592 15.0848 76.3925 14.9803 76.1003 14.9196C75.8081 14.8575 75.5074 14.8279 75.1997 14.8279C74.6069 14.8279 74.1524 14.962 73.8376 15.2302C73.5229 15.4984 73.3648 15.8964 73.3648 16.4243V20.8861H71.5298V20.8833Z" fill="#231F20"/>
<path d="M80.7568 21.1995C80.1485 21.1995 79.5641 21.1176 79.0037 20.9553C78.4433 20.7929 77.9917 20.5812 77.6515 20.3201L78.2486 18.9961C78.5676 19.2276 78.9501 19.4181 79.3989 19.5663C79.8478 19.7145 80.2995 19.7894 80.7554 19.7894C81.1026 19.7894 81.3835 19.7527 81.5967 19.6807C81.8098 19.6087 81.9679 19.5127 82.0695 19.3927C82.1711 19.2727 82.222 19.1344 82.222 18.9749C82.222 18.7731 82.1429 18.6107 81.9834 18.4922C81.8239 18.3722 81.6122 18.2748 81.3482 18.1986C81.0843 18.1224 80.7963 18.0504 80.4858 17.9812C80.1739 17.912 79.8619 17.8288 79.5471 17.7314C79.2324 17.634 78.943 17.5027 78.6791 17.3404C78.4151 17.1781 78.2048 16.9635 78.0495 16.6996C77.8943 16.4356 77.8166 16.1039 77.8166 15.7058C77.8166 15.2711 77.9324 14.8759 78.1639 14.5174C78.3954 14.1588 78.7482 13.8737 79.2225 13.6592C79.6968 13.446 80.2924 13.3387 81.0081 13.3387C81.4851 13.3387 81.958 13.3966 82.4252 13.5124C82.8924 13.6281 83.2989 13.7947 83.6462 14.012L83.0929 15.336C82.7527 15.1412 82.4012 14.9944 82.0399 14.8971C81.6771 14.7997 81.3299 14.7503 80.9982 14.7503C80.6665 14.7503 80.3715 14.7884 80.1626 14.8646C79.9522 14.9408 79.7984 15.0439 79.701 15.1737C79.6036 15.3036 79.5542 15.449 79.5542 15.6085C79.5542 15.8117 79.6332 15.974 79.7927 16.0968C79.9523 16.2196 80.1626 16.3156 80.4223 16.3848C80.6834 16.454 80.9728 16.5231 81.2904 16.5909C81.6094 16.66 81.9241 16.7447 82.2347 16.8464C82.5452 16.948 82.8317 17.0764 83.0929 17.2317C83.354 17.387 83.5657 17.5973 83.728 17.8612C83.8904 18.1252 83.9722 18.4527 83.9722 18.8436C83.9722 19.2713 83.8551 19.6609 83.6194 20.0166C83.3836 20.3709 83.0279 20.6574 82.5494 20.8748C82.0723 21.0922 81.4753 21.2009 80.7582 21.2009L80.7568 21.1995Z" fill="#231F20"/>
<path d="M93.9728 14.8137V13.4022H88.1856V21.0244H90.0206V18.3425H93.5494V16.931H90.0206V14.8137H93.9728Z" fill="white"/>
<path d="M96.937 13.4022H95.102V21.0244H96.937V13.4022Z" fill="white"/>
<path d="M104.148 21.0244H105.688V13.4022H103.995V18.0263L100.309 13.4022H98.7719V21.0244H100.466V16.4003L104.148 21.0244Z" fill="white"/>
<path d="M108.925 19.4717H112.585L113.289 21.1655H115.13L111.648 13.4022H109.873L106.422 21.1655H108.221L108.925 19.4717ZM110.756 15.1624L111.96 18.0602H109.549L110.754 15.1624H110.756Z" fill="white"/>
<path d="M117.545 16.3989L121.228 21.0244H122.768V13.4022H121.074V18.0263L117.391 13.4022H115.851V21.0244H117.545V16.3989Z" fill="white"/>
<path d="M126.587 15.5111C126.805 15.2937 127.061 15.1258 127.358 15.0058C127.654 14.8858 127.98 14.8265 128.335 14.8265C128.712 14.8265 129.06 14.9028 129.382 15.0538C129.704 15.2062 129.992 15.4307 130.244 15.7271L131.385 14.6854C131.022 14.2436 130.575 13.909 130.038 13.6818C129.503 13.4531 128.906 13.3402 128.247 13.3402C127.661 13.3402 127.116 13.4362 126.614 13.6282C126.112 13.8201 125.673 14.0925 125.3 14.4482C124.927 14.8025 124.638 15.2189 124.432 15.696C124.226 16.1731 124.123 16.6982 124.123 17.2699C124.123 17.8415 124.226 18.3666 124.432 18.8437C124.638 19.3208 124.926 19.7372 125.294 20.0915C125.663 20.4458 126.099 20.7196 126.603 20.9116C127.105 21.1035 127.65 21.1995 128.236 21.1995C128.902 21.1995 129.502 21.0838 130.038 20.8523C130.573 20.6208 131.022 20.2848 131.385 19.843L130.244 18.8013C129.99 19.0978 129.704 19.3236 129.382 19.4803C129.06 19.6355 128.71 19.7132 128.335 19.7132C127.98 19.7132 127.654 19.6539 127.358 19.5339C127.061 19.4139 126.805 19.246 126.587 19.0286C126.37 18.8112 126.202 18.5543 126.082 18.2579C125.962 17.9615 125.903 17.6326 125.903 17.2699C125.903 16.9071 125.962 16.5782 126.082 16.2818C126.202 15.9854 126.37 15.7285 126.587 15.5111Z" fill="white"/>
<path d="M138.294 14.8137V13.4022H132.507V21.0244H138.435V19.6129H134.342V17.9191H137.871V16.5075H134.342V14.8137H138.294Z" fill="white"/>
<path d="M27.5866 0H6.98134C3.14202 0 0 3.14202 0 6.98134V27.5866C0 31.4259 3.14202 34.5679 6.98134 34.5679H27.5866C31.4259 34.5679 34.5679 31.4259 34.5679 27.5866V6.98134C34.5679 3.14202 31.4259 0 27.5866 0ZM2.17232 9.17624C2.17232 7.85788 3.23942 6.79078 4.55777 6.79078C5.87612 6.79078 6.94181 7.85788 6.94181 9.17624C6.94181 10.4946 5.87471 11.5603 4.55777 11.5603C3.24083 11.5603 2.17232 10.4932 2.17232 9.17624ZM30.4844 9.22423C30.459 9.15647 27.0093 20.7944 25.9662 24.3203C25.77 24.9852 25.5117 25.6288 25.1927 26.2442L25.1771 26.2725C24.8313 26.9401 24.333 27.5216 23.7077 27.938C22.0817 29.0193 20.7902 28.6734 19.9164 28.0848C19.2107 27.6092 18.6955 26.9006 18.4188 26.0974L18.1083 25.2011L17.2684 22.5602L16.0122 19.1387L14.0403 25.5879C13.7382 26.4545 13.0141 27.6402 12.4594 27.9931C11.0084 28.9162 9.0859 28.641 7.91434 27.3833C7.04344 26.4475 6.6454 25.3197 6.6454 25.3197L4.18513 17.1146C3.73204 15.624 4.09197 14.6811 4.60012 14.101C5.11532 13.5124 5.886 13.2188 6.66798 13.2414C8.75843 13.3021 9.37808 14.7898 9.46418 15.0439C9.46418 15.0439 9.46418 15.0509 9.46701 15.0552C9.46701 15.0594 9.46983 15.0622 9.47124 15.0651C9.47124 15.0651 9.47124 15.0721 9.47406 15.0735C9.47406 15.0792 9.47689 15.0792 9.47689 15.0792C9.60251 15.4702 10.6089 18.7152 10.6089 18.7152L12.5272 12.8433C12.5272 12.8433 12.5272 12.8377 12.5272 12.8363C12.5272 12.8363 12.5272 12.8363 12.5272 12.8335C12.561 12.7064 12.7629 11.9964 13.1369 11.3923C14.5767 9.07461 18.2127 9.57993 19.5198 11.9767C19.7499 12.4001 19.8487 12.7149 19.8487 12.7149L21.7697 18.9566L25.0699 8.45354C25.2745 7.82401 25.5554 7.33139 25.8617 6.94887C26.9486 5.58959 28.9769 5.58817 30.0962 6.92205C30.4364 7.32998 30.5508 7.872 30.5832 8.28275C30.5889 8.34909 30.5917 8.41684 30.5917 8.48318C30.5917 8.73161 30.5536 8.98004 30.4844 9.22141V9.22423Z" fill="url(#paint1_linear_722_10414)"/>
<path d="M7.60978 13.2083C7.60978 13.2083 7.60978 13.2083 7.6069 13.2025C7.6069 13.2025 7.60401 13.1982 7.60401 13.1953C7.60401 13.1953 7.60113 13.1881 7.59969 13.1838C7.59969 13.1795 7.5968 13.1766 7.5968 13.1737C7.5968 13.1737 7.59969 13.178 7.59969 13.1795C7.60257 13.1852 7.60401 13.1896 7.60545 13.1953C7.60834 13.2011 7.60834 13.2054 7.60978 13.2083Z" fill="url(#paint2_linear_722_10414)"/>
</g>
<defs>
<linearGradient id="paint0_linear_722_10414" x1="87.4799" y1="17.2839" x2="139" y2="17.2839" gradientUnits="userSpaceOnUse">
<stop stop-color="#02D432"/>
<stop offset="1" stop-color="#04C72E"/>
</linearGradient>
<linearGradient id="paint1_linear_722_10414" x1="6.75973" y1="-0.945712" x2="27.8096" y2="35.5136" gradientUnits="userSpaceOnUse">
<stop stop-color="#02D432"/>
<stop offset="1" stop-color="#05C12B"/>
</linearGradient>
<linearGradient id="paint2_linear_722_10414" x1="7.59824" y1="13.191" x2="7.60978" y2="13.191" gradientUnits="userSpaceOnUse">
<stop stop-color="#80C245"/>
<stop offset="0.28" stop-color="#76C047"/>
<stop offset="0.74" stop-color="#5EBA4C"/>
<stop offset="1" stop-color="#4DB751"/>
</linearGradient>
<clipPath id="clip0_722_10414">
<rect width="139" height="34.5679" fill="white"/>
</clipPath>
</defs>
</svg>
