<svg width="44" height="44" viewBox="0 0 44 44" fill="none" xmlns="http://www.w3.org/2000/svg">
<rect width="44" height="44" rx="8" fill="#F4FFFB"/>
<path d="M13.4423 29.37L13.4423 29.3699C13.3727 29.5485 13.3622 29.7198 13.4101 29.8842L13.4101 29.8842C13.4582 30.0495 13.5418 30.1916 13.6607 30.3106C13.7797 30.4296 13.9218 30.5131 14.0871 30.5612C14.2515 30.609 14.4227 30.5984 14.6011 30.5288L14.6014 30.5286L23.7069 27.2538C23.7069 27.2537 23.707 27.2537 23.707 27.2537C23.9024 27.1777 24.0508 27.0629 24.153 26.9095L24.1634 26.9164L24.153 26.9095C24.2555 26.7558 24.3066 26.5899 24.3066 26.4117C24.3066 26.2926 24.2866 26.182 24.2467 26.0797L24.2467 26.0797C24.2071 25.9777 24.1413 25.8804 24.0488 25.7877L18.1833 19.9225C18.0908 19.83 17.9936 19.7641 17.8916 19.7243C17.8916 19.7243 17.8916 19.7243 17.8916 19.7243L13.4423 29.37ZM13.4423 29.37L13.4424 29.3696M13.4423 29.37L13.4424 29.3696M13.4424 29.3696L16.7173 20.2645M13.4424 29.3696L16.7173 20.2645M16.7173 20.2645C16.7173 20.2644 16.7173 20.2643 16.7173 20.2643M16.7173 20.2645L16.7173 20.2643M16.7173 20.2643C16.7935 20.0689 16.9084 19.9205 17.0616 19.8183L16.7173 20.2643ZM15.2594 28.696L15.2506 28.7207L15.2753 28.7119L22.3253 26.2119L22.344 26.2053L22.33 26.1913L17.78 21.6413L17.766 21.6273L17.7594 21.646L15.2594 28.696ZM32.3333 17.2663L32.3331 17.2666C32.2172 17.3886 32.0822 17.4492 31.9276 17.4492C31.7728 17.4492 31.6379 17.3917 31.5222 17.2761L31.4567 17.2106C31.1825 16.9364 30.8493 16.7992 30.4576 16.7992C30.0659 16.7992 29.7325 16.9364 29.4583 17.2106L24.3928 22.2761C24.2771 22.3918 24.1421 22.4508 23.9871 22.4539L23.9871 22.4539C23.8326 22.4572 23.6944 22.3983 23.5722 22.2761C23.4499 22.1536 23.3894 22.0169 23.3894 21.8657C23.3894 21.7143 23.4499 21.5776 23.5722 21.4552L28.6375 16.3897C29.1365 15.8909 29.7397 15.6417 30.4479 15.6417C31.1561 15.6417 31.7593 15.8909 32.2583 16.3898L32.3333 16.4647C32.4492 16.5806 32.5066 16.7141 32.5066 16.8657C32.5066 17.0171 32.4492 17.1505 32.3333 17.2663ZM20.0992 15.4413L20.0992 15.4413L19.8875 15.2298C19.7718 15.114 19.7126 14.9788 19.7094 14.8239C19.7063 14.6694 19.7653 14.5312 19.8875 14.409C20.0098 14.2867 20.1465 14.2262 20.2979 14.2262C20.4493 14.2262 20.586 14.2867 20.7083 14.409L20.9198 14.6205C21.4508 15.1515 21.7161 15.7881 21.7161 16.5309C21.7161 17.2737 21.4508 17.9103 20.9198 18.4413L20.7391 18.6221L20.739 18.6221C20.6234 18.7379 20.4883 18.7971 20.3334 18.8002C20.1788 18.8033 20.0406 18.7443 19.9182 18.6221C19.7959 18.4997 19.7354 18.3631 19.7354 18.2117C19.7354 18.0604 19.7959 17.9237 19.9182 17.8012L20.0992 17.6205L20.0992 17.6205C20.3989 17.3208 20.5489 16.9574 20.5489 16.5309C20.5489 16.1046 20.3989 15.7412 20.0992 15.4413ZM23.9874 22.4664C23.8291 22.4697 23.6877 22.4092 23.5634 22.2849C23.4391 22.1604 23.3769 22.0207 23.3769 21.8657C23.3769 21.7105 23.4391 21.5707 23.5634 21.4464L28.6286 16.3809C29.13 15.8797 29.7364 15.6292 30.4479 15.6292C31.1594 15.6292 31.7658 15.8797 32.2671 16.3809L23.9874 22.4664ZM24.8107 14.5643L24.8019 14.5732L24.8107 14.5643L23.7452 13.4991C23.6294 13.3832 23.5702 13.2481 23.5671 13.0932C23.564 12.9386 23.623 12.8005 23.7452 12.6782C23.8676 12.5559 24.0042 12.4954 24.1556 12.4954C24.307 12.4954 24.4437 12.5559 24.5661 12.6782L25.6313 13.7437L25.6401 13.7349L25.6313 13.7438C26.1368 14.2491 26.3894 14.8555 26.3894 15.5637C26.3894 16.2718 26.1368 16.8782 25.6313 17.3836L22.566 20.4491C22.4502 20.5649 22.3151 20.6241 22.1601 20.6272C22.0056 20.6303 21.8674 20.5713 21.7452 20.4491C21.6229 20.3267 21.5624 20.1901 21.5624 20.0387C21.5624 19.8873 21.6229 19.7506 21.7452 19.6282L24.8107 16.563C25.0848 16.2888 25.2219 15.9554 25.2219 15.5637C25.2219 15.1719 25.0848 14.8385 24.8107 14.5643ZM30.8428 24.1028C30.7205 24.2252 30.5838 24.2857 30.4324 24.2857C30.2812 24.2857 30.1446 24.2252 30.0222 24.1028L29.2452 23.3261C28.939 23.0197 28.564 22.8664 28.1209 22.8664C27.678 22.8664 27.303 23.0197 26.9968 23.3261L26.2198 24.1028C26.1039 24.2187 25.9688 24.2778 25.8139 24.2809C25.6594 24.284 25.5212 24.225 25.399 24.1028C25.2766 23.9805 25.2161 23.8438 25.2161 23.6924C25.2161 23.5412 25.2766 23.4045 25.399 23.282C25.399 23.282 25.399 23.282 25.399 23.282L26.176 22.5053C26.7133 21.9678 27.3614 21.6992 28.1209 21.6992C28.8804 21.6992 29.5286 21.9678 30.0661 22.5052L30.8428 23.282C30.9587 23.3979 31.0178 23.533 31.0209 23.6879C31.024 23.8425 30.965 23.9806 30.8428 24.1028Z" fill="#00A26B" stroke="#00A26B" stroke-width="0.025"/>
</svg>
