<svg width="44" height="44" viewBox="0 0 44 44" fill="none" xmlns="http://www.w3.org/2000/svg">
<rect width="44" height="44" rx="8" fill="#FFF6E6"/>
<path d="M16.9007 17.0427C16.8471 17.0794 16.8071 17.1312 16.7806 17.1974L16.7806 17.1974L16.7805 17.1979L15.596 20.5729L15.5901 20.5895L27.0922 17.053L27.0993 17.0427C27.0457 17.0058 26.9822 16.9875 26.9095 16.9875H17.0905C17.0178 16.9875 16.9544 17.0057 16.9007 17.0427ZM16.9007 17.0427L16.9077 17.053L16.9007 17.0427C16.9007 17.0427 16.9007 17.0427 16.9007 17.0427ZM15.6153 28.4875H15.6028V28.5V29.4423C15.6028 29.7328 15.5011 29.9794 15.2977 30.1827C15.0942 30.386 14.8474 30.4875 14.5565 30.4875C14.2658 30.4875 14.0194 30.386 13.8166 30.1827C13.6138 29.9794 13.5125 29.7328 13.5125 29.4423V22.3885C13.5125 22.2852 13.5192 22.1819 13.5326 22.0786C13.546 21.9756 13.5685 21.8769 13.6001 21.7826C13.6001 21.7825 13.6001 21.7825 13.6001 21.7825L15.3908 16.7197L15.3908 16.7197L15.3909 16.7194C15.5098 16.3618 15.7254 16.0714 16.0378 15.8479L16.0378 15.8479C16.3501 15.6243 16.6996 15.5125 17.0865 15.5125H26.9135C27.3004 15.5125 27.6499 15.6243 27.9622 15.8479C28.2746 16.0714 28.4902 16.3618 28.6091 16.7194L28.6092 16.7197L30.3999 21.7825C30.3999 21.7825 30.3999 21.7826 30.3999 21.7826C30.4315 21.8769 30.454 21.9756 30.4674 22.0786C30.4808 22.1819 30.4875 22.2852 30.4875 22.3885V29.4423C30.4875 29.7328 30.3859 29.9794 30.1824 30.1827C29.9788 30.386 29.732 30.4875 29.4413 30.4875C29.1504 30.4875 28.9039 30.386 28.7011 30.1827C28.4985 29.9794 28.3973 29.7328 28.3973 29.4423V28.5V28.4875H28.3848H15.6153ZM16.5448 25.4574L16.5448 25.4574C16.2924 25.2066 16.1662 24.9013 16.1662 24.5408C16.1662 24.1802 16.2916 23.874 16.5426 23.6216C16.7934 23.3693 17.0987 23.2433 17.4592 23.2433C17.8198 23.2433 18.126 23.3686 18.3784 23.6194C18.6307 23.8703 18.7568 24.1757 18.7568 24.5363C18.7568 24.8968 18.6314 25.2029 18.3806 25.4552C18.1297 25.7076 17.8243 25.8338 17.4637 25.8338C17.1032 25.8338 16.7971 25.7084 16.5448 25.4574ZM14.9875 27V27.0125H15H29H29.0125V27V22.077V22.0645H29H15H14.9875V22.077V27ZM27.4574 25.4552L27.4574 25.4552C27.2066 25.7076 26.9013 25.8338 26.5408 25.8338C26.1802 25.8338 25.874 25.7084 25.6216 25.4574C25.3693 25.2066 25.2432 24.9013 25.2432 24.5408C25.2432 24.1802 25.3686 23.874 25.6194 23.6216C25.8703 23.3693 26.1757 23.2433 26.5363 23.2433C26.8968 23.2433 27.2029 23.3686 27.4552 23.6194C27.7076 23.8703 27.8337 24.1757 27.8337 24.5363C27.8337 24.8968 27.7084 25.2029 27.4574 25.4552Z" fill="#E29600" stroke="#E29600" stroke-width="0.025"/>
</svg>
