<svg width="44" height="44" viewBox="0 0 44 44" fill="none" xmlns="http://www.w3.org/2000/svg">
<rect width="44" height="44" rx="8" fill="#F4FAFF"/>
<path d="M17.1611 26.8447L17.159 26.8458L18.3918 29.1148C18.4809 29.2769 18.6141 29.3697 18.7923 29.3942C18.9702 29.4186 19.1247 29.3652 19.2567 29.2332L19.2567 29.2332L19.3527 29.137L19.3527 29.137L17.1611 26.8447ZM17.1611 26.8447L17.154 26.8408M17.1611 26.8447L17.154 26.8408M17.154 26.8408L14.7888 25.5523L14.7885 25.5522M17.154 26.8408L14.7885 25.5522M14.7885 25.5522C14.6471 25.4796 14.5681 25.3693 14.55 25.2203L14.7885 25.5522ZM14.9129 24.6164L14.9127 24.6166L14.6801 24.8394C14.6801 24.8394 14.6801 24.8395 14.68 24.8395C14.5752 24.9444 14.5319 25.0709 14.55 25.2203L14.9129 24.6164ZM14.9129 24.6164C14.9653 24.564 15.0266 24.5273 15.0969 24.506C15.1675 24.4848 15.2334 24.4824 15.2949 24.4984L15.2963 24.4987M14.9129 24.6164L15.2963 24.4987M15.2963 24.4987L17.4675 24.8084L17.4664 24.8167M15.2963 24.4987L17.4664 24.8167M17.4664 24.8167L17.4781 24.8049M17.4664 24.8167L17.4781 24.8049M17.4781 24.8049L21.5031 20.7799L21.515 20.7681M17.4781 24.8049L21.515 20.7681M21.515 20.7681L21.5003 20.7601M21.515 20.7681L21.5003 20.7601M21.5003 20.7601L14.6908 17.0601L14.6906 17.06M21.5003 20.7601L14.6906 17.06M14.6906 17.06C14.5018 16.9605 14.392 16.8053 14.3604 16.5932C14.329 16.3812 14.3893 16.1995 14.5416 16.0471L14.7339 15.8549C14.8171 15.7717 14.9123 15.7154 15.0196 15.6859L14.6906 17.06ZM24.2825 17.9697L24.2855 17.9582L15.355 15.6812C15.355 15.6812 15.3549 15.6812 15.3549 15.6812L24.2825 17.9697ZM24.2825 17.9697L24.2974 17.9549M24.2825 17.9697L24.2974 17.9549M24.2974 17.9549L27.7319 14.5414L27.7319 14.5414M24.2974 17.9549L27.7319 14.5414M27.7319 14.5414C27.968 14.3053 28.2564 14.1873 28.5981 14.1873C28.9397 14.1873 29.2281 14.3053 29.4642 14.5414C29.7003 14.7775 29.8183 15.0675 29.8183 15.4123C29.8183 15.7573 29.7003 16.0473 29.4642 16.2832L29.4642 16.2832M27.7319 14.5414L29.4642 16.2832M29.4642 16.2832L26.0547 19.7122L26.0463 19.7039M29.4642 16.2832L26.0463 19.7039M26.0463 19.7039L26.0514 19.7241M26.0463 19.7039L26.0514 19.7241M26.0514 19.7241L28.3186 28.6139M26.0514 19.7241L28.3186 28.6139M28.3186 28.6139C28.3186 28.614 28.3186 28.614 28.3186 28.6141M28.3186 28.6139L28.3186 28.6141M28.3186 28.6141C28.345 28.7404 28.3424 28.8624 28.311 28.9803C28.2796 29.098 28.2192 29.2015 28.1297 29.291L28.3186 28.6141ZM19.5108 28.6733C19.527 28.7623 19.5205 28.8458 19.4913 28.9242L28.1297 29.291L28.0335 29.387L28.0335 29.387C27.8605 29.56 27.6576 29.6294 27.4238 29.5959C27.1902 29.5627 27.0158 29.4386 26.8996 29.2226L26.8995 29.2226L23.2398 22.5091L23.2318 22.4944L23.22 22.5062L19.2142 26.5122L19.2084 26.5064L19.2107 26.5228L19.5107 28.6728L19.5107 28.6728L19.5108 28.6733Z" fill="#0090FF" stroke="#0090FF" stroke-width="0.025"/>
</svg>
