<svg width="112" height="112" viewBox="0 0 112 112" fill="none" xmlns="http://www.w3.org/2000/svg">
<rect width="112" height="112" rx="56" fill="#FFF3CD"/>
<path d="M48.9297 41.0628C52.8349 37.6457 59.1666 37.6457 63.0718 41.0628C66.9771 44.4799 66.9771 50.0201 63.0718 53.4372C62.3921 54.0319 61.6389 54.5232 60.8378 54.9109C58.3521 56.1138 56.0008 58.2386 56.0008 61V63.5M86 56C86 72.5685 72.5685 86 56 86C39.4315 86 26 72.5685 26 56C26 39.4315 39.4315 26 56 26C72.5685 26 86 39.4315 86 56ZM56 73.5H56.025V73.525H56V73.5Z" stroke="#997404" stroke-width="1.5" stroke-linecap="round" stroke-linejoin="round"/>
</svg>
