<svg width="44" height="44" viewBox="0 0 44 44" fill="none" xmlns="http://www.w3.org/2000/svg">
<rect width="44" height="44" rx="8" fill="#F5F2FF"/>
<path d="M22.75 14.5208V14.5125H17.5C16.1109 14.5125 14.9327 14.9965 13.9646 15.9646C12.9965 16.9327 12.5125 18.1109 12.5125 19.5C12.5125 20.0175 12.541 20.5456 12.5979 21.0842C12.655 21.6228 12.7579 22.2538 12.9065 22.9772C13.0551 23.7006 13.258 24.562 13.5151 25.5614C13.7721 26.5606 14.1089 27.7793 14.5255 29.2175C14.6285 29.5725 14.8434 29.8729 15.171 30.1188C15.4986 30.3649 15.8428 30.4875 16.2037 30.4875H17.6923C18.1876 30.4875 18.6104 30.3122 18.9614 29.9614C19.3122 29.6104 19.4875 29.1876 19.4875 28.6923V28.5V28.4875H19.5H22.5H22.5125V28.5V28.6923C22.5125 29.1876 22.6878 29.6104 23.0386 29.9614C23.3896 30.3122 23.8124 30.4875 24.3077 30.4875H25.7693C26.1718 30.4875 26.5307 30.372 26.8464 30.1409C27.1621 29.9099 27.3798 29.5984 27.4995 29.2059L22.75 14.5208ZM22.75 14.5208L22.76 14.5075C23.209 13.9089 23.7577 13.4267 24.4061 13.0609C25.0543 12.6953 25.7521 12.5125 26.5 12.5125C26.7723 12.5125 27.0047 12.6089 27.1979 12.8021C27.3911 12.9953 27.4875 13.2277 27.4875 13.5C27.4875 13.5668 27.4783 13.632 27.46 13.6955L27.46 13.6956C27.4415 13.7602 27.4221 13.8244 27.4017 13.8881M22.75 14.5208L27.4017 13.8881M27.4017 13.8881C27.3284 14.0845 27.2579 14.2969 27.19 14.5252C27.1218 14.7542 27.0582 15.0445 26.9992 15.3959L26.9903 15.3944L27.0027 15.4068L29.6047 18.0088L29.601 18.0125H29.6135H30.596C30.8507 18.0125 31.0626 18.0976 31.2324 18.2676L31.2413 18.2587L31.2324 18.2676C31.4024 18.4374 31.4875 18.6493 31.4875 18.904V23.452C31.4875 23.6468 31.4322 23.8198 31.3217 23.9714C31.2111 24.1229 31.0585 24.2337 30.8632 24.3034C30.8631 24.3034 30.8631 24.3035 30.863 24.3035L28.7671 24.9939L28.7642 24.985L28.759 25.0022L27.4995 29.2059L27.4017 13.8881ZM24.5004 14.8022C24.1249 15.1425 23.8469 15.5376 23.6665 15.9875H17.5C16.53 15.9875 15.7018 16.3305 15.0162 17.0162C14.3305 17.7018 13.9875 18.53 13.9875 19.5C13.9875 20.1719 14.1564 21.3151 14.4935 22.9286C14.8307 24.5424 15.3065 26.4871 15.9207 28.7628L15.9207 28.7628C15.9406 28.8361 15.9824 28.8962 16.0456 28.9428L16.053 28.9328L16.0456 28.9428C16.1084 28.9891 16.1766 29.0125 16.25 29.0125H17.6923C17.785 29.0125 17.8621 28.9826 17.9223 28.9223C17.9826 28.8621 18.0125 28.785 18.0125 28.6923V27.0125H23.9875V28.6923C23.9875 28.785 24.0174 28.8621 24.0777 28.9223C24.1379 28.9826 24.215 29.0125 24.3077 29.0125H25.7693C25.8422 29.0125 25.9072 28.9925 25.964 28.9525C26.021 28.9122 26.0594 28.8551 26.0793 28.7822C26.0793 28.7822 26.0793 28.7821 26.0793 28.782L27.5601 23.8598L30.004 23.0368L30.0125 23.034V23.025V19.5V19.4875H30H29.0052L25.5125 15.9948C25.5127 15.6829 25.5351 15.3633 25.5796 15.0362C25.6244 14.7075 25.6916 14.3998 25.7812 14.1132L25.788 14.0914L25.766 14.0974C25.2998 14.225 24.8779 14.46 24.5004 14.8022ZM22.7757 18.5257L22.7757 18.5257C22.6346 18.6669 22.4597 18.7375 22.25 18.7375H18.75C18.5403 18.7375 18.3654 18.6669 18.2243 18.5257L18.2243 18.5257C18.0831 18.3846 18.0125 18.2097 18.0125 18C18.0125 17.7903 18.0831 17.6154 18.2243 17.4743L18.2243 17.4743C18.3654 17.3331 18.5403 17.2625 18.75 17.2625H22.25C22.4597 17.2625 22.6346 17.3331 22.7757 17.4743L22.7757 17.4743C22.9169 17.6154 22.9875 17.7903 22.9875 18C22.9875 18.2097 22.9169 18.3846 22.7757 18.5257ZM26.872 20C26.872 20.2415 26.7871 20.447 26.6172 20.6172C26.447 20.7871 26.2415 20.872 26 20.872C25.7585 20.872 25.553 20.7871 25.3828 20.6172C25.2129 20.447 25.128 20.2415 25.128 20C25.128 19.7585 25.2129 19.553 25.3828 19.3828C25.553 19.2129 25.7585 19.128 26 19.128C26.2415 19.128 26.447 19.2129 26.6172 19.3828C26.7871 19.553 26.872 19.7585 26.872 20ZM18 18C18 18.2128 18.0718 18.391 18.2155 18.5345V17.4655C18.0718 17.609 18 17.7872 18 18Z" fill="#A291DE" stroke="#A291DE" stroke-width="0.025"/>
</svg>
